<?xml version="1.0" encoding="iso-8859-1"?>
<!-- Generator: Adobe Illustrator 18.1.1, SVG Export Plug-In . SVG Version: 6.00 Build 0)  -->
<svg version="1.1" id="Capa_1" xmlns="http://www.w3.org/2000/svg" xmlns:xlink="http://www.w3.org/1999/xlink" x="0px" y="0px"
	 viewBox="0 0 29.9 29.9" style="enable-background:new 0 0 29.9 29.9;" xml:space="preserve">
<g>
	<circle cx="14.952" cy="14.949" r="3.092"/>
	<path d="M14.951,0C6.694,0,0.004,6.691,0.002,14.949c0.002,8.258,6.692,14.947,14.95,14.951
		c8.256-0.004,14.945-6.693,14.947-14.951C29.896,6.691,23.208,0,14.951,0z M23.744,23.738c-2.264,2.256-5.352,3.641-8.793,3.645
		c-3.443-0.004-6.532-1.389-8.792-3.645c-2.254-2.258-3.639-5.346-3.642-8.789c0.003-3.441,1.388-6.531,3.642-8.793
		c2.26-2.252,5.348-3.641,8.792-3.641c3.441,0,6.529,1.389,8.793,3.641c2.254,2.262,3.639,5.352,3.641,8.793
		C27.382,18.393,25.999,21.48,23.744,23.738z"/>
	<path d="M14.951,5.152c-5.256,0-9.514,4.262-9.517,9.518c0.003,5.26,4.261,9.516,9.517,9.52c5.258-0.004,9.516-4.26,9.52-9.52
		C24.466,9.414,20.209,5.152,14.951,5.152z M19.953,19.672c-1.285,1.283-3.043,2.07-5.002,2.074c-1.957-0.004-3.715-0.791-5-2.074
		c-1.285-1.285-2.07-3.041-2.072-5.002c0.002-1.957,0.787-3.715,2.072-5.002c1.286-1.281,3.043-2.072,5-2.072
		c1.959,0,3.717,0.791,5.002,2.072c1.285,1.287,2.072,3.045,2.074,5.002C22.026,16.631,21.238,18.387,19.953,19.672z"/>
	<g>
	</g>
	<g>
	</g>
	<g>
	</g>
	<g>
	</g>
	<g>
	</g>
	<g>
	</g>
	<g>
	</g>
	<g>
	</g>
	<g>
	</g>
	<g>
	</g>
	<g>
	</g>
	<g>
	</g>
	<g>
	</g>
	<g>
	</g>
	<g>
	</g>
</g>
<g>
</g>
<g>
</g>
<g>
</g>
<g>
</g>
<g>
</g>
<g>
</g>
<g>
</g>
<g>
</g>
<g>
</g>
<g>
</g>
<g>
</g>
<g>
</g>
<g>
</g>
<g>
</g>
<g>
</g>
</svg>
